<?xml version="1.0" encoding="UTF-8" standalone="no"?>
<svg
   width="64"
   height="63.999996"
   enable-background="new"
   version="1.0"
   id="svg87"
   xmlns:xlink="http://www.w3.org/1999/xlink"
   xmlns="http://www.w3.org/2000/svg"
   xmlns:svg="http://www.w3.org/2000/svg"
   xmlns:rdf="http://www.w3.org/1999/02/22-rdf-syntax-ns#"
   xmlns:cc="http://creativecommons.org/ns#"
   xmlns:dc="http://purl.org/dc/elements/1.1/">
  <g
     id="layer3"
     style="display:inline">
    <path
       d="m 26.892871,25.887831 c -0.150142,0.169143 -0.243977,0.281901 -0.412888,0.507417 -0.431657,0.563801 -0.656864,0.751739 -0.882071,0.751739 -0.262746,0 -0.431652,-0.244311 -0.56303,-0.770522 -0.0563,-0.206727 -0.0563,-0.244317 -0.07507,-0.300696 -0.46919,-1.916945 -0.675622,-2.781383 -0.675622,-3.063308 0.844557,-1.465853 1.501421,-2.274001 1.839232,-2.274001 0.112603,0 0.281515,0.05635 0.45042,0.150342 0.225213,0.131552 0.356586,0.169142 0.525491,0.169142 0.37535,0 0.638107,-0.2819 0.638107,-0.676547 0,-0.413454 -0.319047,-0.695331 -0.769468,-0.695331 -0.825799,0 -1.520178,0.676548 -2.833906,2.687467 l -0.206444,-1.033604 c -0.262746,-1.277963 -0.469189,-1.653803 -0.975918,-1.653803 -0.431657,0 -1.032189,0.150341 -2.195799,0.545 -0.112604,0.03757 -0.112604,0.03757 -0.206444,0.07517 l 0.07507,0.281901 c 0.731953,-0.187932 0.863314,-0.206727 1.051006,-0.206727 0.46919,0 0.581794,0.169143 0.844557,1.296747 l 0.544261,2.311567 -1.538936,2.19881 c -0.394118,0.563796 -0.75071,0.902064 -0.95716,0.902064 -0.112604,0 -0.300284,-0.05641 -0.487959,-0.169143 -0.243976,-0.131553 -0.431651,-0.187932 -0.600532,-0.187932 -0.37535,0 -0.638107,0.281901 -0.638107,0.657765 0,0.488628 0.356586,0.789306 0.938403,0.789306 0.581817,0 0.806982,-0.169137 1.745385,-1.296747 0.506722,-0.620198 0.919586,-1.183988 1.689054,-2.217593 l 0.56303,2.255219 c 0.243976,0.977255 0.487958,1.259121 1.088521,1.259121 0.713195,0 1.201124,-0.451038 2.289646,-2.142461 z"
       fill="#f2f2f2"
       stroke-width="0.155423px"
       style="font-variant-ligatures:normal;font-variant-caps:normal;font-variant-numeric:normal;font-feature-settings:normal"
       id="path67" />
    <path
       d="m 18.661316,42.83432 h 0.245531 q 0.02655,0.471795 0.278704,0.657824 0.252164,0.18606 0.802934,0.18606 h 1.811601 l -0.01327,-0.445218 q -1.055115,-0.212636 -1.924384,-1.176177 -0.869328,-0.963541 -0.869328,-2.432078 0,-1.628043 1.207734,-2.777626 1.214345,-1.149582 3.165346,-1.149582 1.891216,0 3.092341,1.089775 1.201125,1.083156 1.201125,2.777626 0,1.375516 -0.749877,2.339056 -0.743207,0.956863 -2.017337,1.329006 l -0.06636,0.445218 h 1.844769 q 0.630425,0 0.829491,-0.239219 0.205712,-0.239224 0.218985,-0.604695 h 0.245531 v 2.079851 h -3.716097 l 0.172531,-2.006806 q 1.712039,-0.538244 1.712039,-3.169625 0,-1.721065 -0.84277,-2.638095 -0.836101,-0.91703 -1.964221,-0.91703 -1.201125,0 -1.990779,0.976838 -0.783044,0.970159 -0.783044,2.485206 0,1.096454 0.351703,2.000127 0.351703,0.897055 1.347075,1.262579 l 0.126079,2.006806 h -3.716097 z"
       fill="#f2f2f2"
       stroke-width="0.155423px"
       style="font-variant-ligatures:normal;font-variant-caps:normal;font-variant-numeric:normal;font-feature-settings:normal"
       id="path71" />
    <path
       d="m 36.382523,28.759915 v 1.648594 H 45 v -1.648594 z m 0,4.945724 v 1.648594 H 45 v -1.648594 z"
       color="#000000"
       enable-background="accumulate"
       fill="#ffffff"
       id="path79"
       style="display:inline;opacity:1;stroke-width:0.59587" />
  </g>
</svg>
